<svg xmlns="http://www.w3.org/2000/svg" viewBox="0 0 42.4 58.5"><title>barista</title><path d="M32,2.8a28.9,28.9,0,0,0-4.3.2,7.2,7.2,0,0,0-4.6,2.5c-1.1,1.3-1.5,3.2-1.5,5.7a4.7,4.7,0,0,0,.3,1.7c4.9,0,10.2-.6,13.2-2.9a.8.8,0,0,1,.7-.2.7.7,0,0,1,.6.3,1,1,0,0,1-.1,1.4l-.6.4a5.4,5.4,0,0,0,3.9,1.9h2.2a6.6,6.6,0,0,0,.6-2.6,10.9,10.9,0,0,0-.9-4.7,5.1,5.1,0,0,0-2.7-2.7,1.6,1.6,0,0,0-.9-.1l-.5.2-.4.3V4a1.4,1.4,0,0,0-.2-.6c-.2-.1-.5-.4-.8-.4A24.2,24.2,0,0,0,32,2.8Zm2,10.1a18.1,18.1,0,0,1-9.6,1.9,3.5,3.5,0,0,0-2.8-.4,2.9,2.9,0,0,0-1.8,2.7h0a3.8,3.8,0,0,0,1,2.9,4.5,4.5,0,0,0,3.8,1,10.7,10.7,0,0,0,2.3,3l-.7,2.9L32,29.7l5.8-2.8L37.1,24a10.7,10.7,0,0,0,2.3-3,4.5,4.5,0,0,0,3.8-1,4.3,4.3,0,0,0,1-2.9h0a2.9,2.9,0,0,0-1.9-2.7h-.8a4.6,4.6,0,0,0-2.4.8l-.8.5A7.4,7.4,0,0,1,34,12.9ZM22.3,16.2a3,3,0,0,1,1.4.4l.3,2.5a2.2,2.2,0,0,1-1.9-.5,2.2,2.2,0,0,1-.4-1.5c0-.7.2-.8.5-.9Zm19.3,0h.2c.3.1.5.1.5.9a1.8,1.8,0,0,1-.5,1.5c-.2.3-.7.6-1.8.5l.3-2.5a3,3,0,0,1,1.3-.4ZM24.8,28.3l-.6.7,4.4,3.5L30.3,31Zm14.4,0L33.7,31l1.7,1.5L39.7,29Zm-16.9,2-4.4,1a29.5,29.5,0,0,0-5.8,7.2,11.1,11.1,0,0,0-1.2,6.7l1.5,1a.9.9,0,0,1,.2,1.3.9.9,0,0,1-1.3.2l-.3-.2c0,.2.1.3.1.5a4.2,4.2,0,0,0,2.6,2.5,20.4,20.4,0,0,1,.6-4.8c.1-.2.1-.3.3-.4a3.5,3.5,0,0,1,2.9-1.1h.7l-1.3-2.2a1.1,1.1,0,0,1,.3-1.3H18a.8.8,0,0,1,.5.5l.6.8a19.5,19.5,0,0,0-.1-5.4,1,1,0,0,1,.5-1.2,1,1,0,0,1,1.3.6,5.1,5.1,0,0,1,.2,1.3l1.6-.6a2.5,2.5,0,0,1,1.1-2.1c-.5-1.6-1-3.3-1.4-4.3Zm19.4,0a36.4,36.4,0,0,0-1.4,4.3,2.5,2.5,0,0,1,1.1,2.1l1.6.6a5.1,5.1,0,0,1,.2-1.3,1,1,0,0,1,1.2-.6.9.9,0,0,1,.6,1.2,19.7,19.7,0,0,0-.1,5.4l.6-.8a1.2,1.2,0,0,1,.5-.5h.7a1,1,0,0,1,.4,1.3l-1.3,2.2h.6a3.6,3.6,0,0,1,3,1.1l.3.4a29.4,29.4,0,0,1,.6,4.8A4.2,4.2,0,0,0,52.9,48c0-.2.1-.3.1-.5l-.3.2a.9.9,0,0,1-1.1-1.5l1.5-1.1a10.7,10.7,0,0,0-1.2-6.6,29.5,29.5,0,0,0-5.8-7.2ZM24.9,31.9l.6,2.3a2.4,2.4,0,0,1,2,1.6h3.6v-3l-1.9,1.6a.9.9,0,0,1-1.2,0Zm14.2,0L36,34.4a.9.9,0,0,1-1.2,0l-1.9-1.6v3h3.6a2.4,2.4,0,0,1,2-1.6l.6-2.3ZM25.1,36a.7.7,0,1,0,.7.7.7.7,0,0,0-.7-.7Zm13.1.7a.7.7,0,0,0,.7.7.7.7,0,0,0,0-1.4A.7.7,0,0,0,38.2,36.7Zm-10.7,1a2.7,2.7,0,0,1-2.4,1.6,2.5,2.5,0,0,1-1.9-.9l-2.1.9a12.8,12.8,0,0,1-.1,1.8,9.7,9.7,0,0,1-.3,2.3l2.2-.5a7.2,7.2,0,0,1,4.8-2.4,19.8,19.8,0,0,1,4.2-.1A23.5,23.5,0,0,1,39.4,42h0a17.6,17.6,0,0,1,4,1.8,12.8,12.8,0,0,1-.5-2.7V39.2l-2.1-.8a2.5,2.5,0,0,1-1.9.9,2.5,2.5,0,0,1-2.4-1.6Zm2.4,4.5h-2l-2.2.7c4,.9,7.1,4.7,10.3,6.7a15.4,15.4,0,0,0,8.3,2,43.6,43.6,0,0,1-.3-5.1,15.5,15.5,0,0,0-5.2-2.8,24.5,24.5,0,0,0-7-1.6Zm-6.7,2.4A7.1,7.1,0,0,0,20,45.8a40.2,40.2,0,0,1-.3,6c1.1,0,3.2.1,5.4,0a26.8,26.8,0,0,0,8.4-1.5c-1.9-1.4-3.7-3-6-4.6a8.6,8.6,0,0,0-4.3-1.1Zm-5.7,1.5a2.6,2.6,0,0,0-1.4.4,27.1,27.1,0,0,0-.4,5.6l1.8.5a22.5,22.5,0,0,0,.6-6.4Zm28.9,0h-.5c.1,2.4-.1,4.4.6,6.4l1.8-.5a37.5,37.5,0,0,0-.4-5.6,2.7,2.7,0,0,0-1.5-.4ZM35.3,51.5c-2.6,1.6-6.6,2-10.1,2.2H21.5l-.7,7.5h3.8l.8-4.9a.9.9,0,0,1,.9-.8H37.7a.9.9,0,0,1,.9.8l.8,4.9h3.8l-.7-7.7A22.4,22.4,0,0,1,35.3,51.5ZM13.9,53.4h0Zm30.5.2.7,7.6H49a.9.9,0,0,0,.9-1.1l-1.1-6a8.4,8.4,0,0,1-2.9.5c-.4,0-.7-.1-.8-.4a.9.9,0,0,1-.3-.6Zm-25.2,0-.3.6c-.1.3-.4.4-.8.4a8.4,8.4,0,0,1-2.9-.5l-1.1,6a.9.9,0,0,0,.9,1.1h3.9l.8-7.5Zm7.9,3.8-.6,3.9h11l-.6-3.9Z" transform="translate(-10.8 -2.8)"/></svg>