<svg xmlns="http://www.w3.org/2000/svg" viewBox="0 0 88.1 87.7"><title>coffeebeans</title><path d="M22.1,64.7c.1-22.5,21.5-43.2,44.1-42.8,13.1.2,21.7,8.8,21.9,22C88.4,66.4,67.4,87.7,45,87.7,30.8,87.7,22,78.9,22.1,64.7Zm12.1,8.6c.1,1.5-.8,4,1.7,4.2s2.2-2.3,2.3-4A14.9,14.9,0,0,1,44.1,62c3.7-2.7,7.9-4.1,12.3-5.2s11.3-3.8,15.7-8,5.7-7.3,5.9-12.2c.1-1.3-.3-2.4-1.7-2.6s-2.1.8-2.2,2.1C72.9,45.4,66.2,49.3,58.3,52c-3.9,1.3-7.9,2.3-11.7,3.9C39.2,59.2,34.7,64.8,34.2,73.3Z" transform="translate(0 0)" fill="#040404"/><path d="M54,19.5A51.5,51.5,0,0,0,30.1,34.7c-4.8-6.6-5.1-13.8-1.4-21.9.7-1.4,2.8-3.4.1-4.5s-2.9,1.5-3.7,3c-4.5,8.1-3.5,16.3.3,24.4.8,1.6,1.9,2.8.6,4.9C19.3,50.9,16.5,62,19.5,75A32.5,32.5,0,0,1,5.9,60.9C-2.2,45.4-2,29.8,6.8,14.8,12.1,5.7,19.7-1,31,.1S49.1,9.5,54,19.5Z" transform="translate(0 0)" fill="#040404"/></svg>