<svg xmlns="http://www.w3.org/2000/svg" viewBox="0 0 54.4 58.5"><title>coffee_maker</title><path d="M28.1,2.7A2.2,2.2,0,0,0,26,4.8V7.2H22.1L16.6,10v.7l7,1h11l7-1V10L36.3,7.3H32.4V4.8a2.1,2.1,0,0,0-2.1-2.1ZM10.2,10.2c-2.8.2-5,1.4-5.4,3.6a1,1,0,0,0,1,.9,3.1,3.1,0,0,1,2.7,1,7,7,0,0,1,1.2,2.6,10.1,10.1,0,0,0,2,3.6A9.4,9.4,0,0,0,16,24.6c-.5-4.8-.7-9.6-1.3-14.3a13.7,13.7,0,0,0-4.5-.1Zm33.5.4v1l-1,10.9,2.3-.2c.4-3.8.8-7.6,1.3-11.4ZM16.9,12.7l1.7,18.1,5.1.8-1-18.1Zm24.6,0-5.8.8-1,18.1,5.2-.8Zm6.4.1c-.3,2.5-.6,5-.8,7.5h3.3a1.2,1.2,0,0,1,1.2,1.3v1.2h3.1a1,1,0,0,1,0,2H51.6v2.5h3.1a1,1,0,0,1,1,1,1,1,0,0,1-1,.9H51.6v2.5h3a1,1,0,0,1,0,2h-3v1.2a3.2,3.2,0,0,0,3.2,3.2H56a3.2,3.2,0,0,0,3.2-3.2V20.4a7.7,7.7,0,0,0-7.7-7.6Zm-23.2.8,1,18.1h7.1l1-18.1Zm-6,19.1.3,2.5,5.8,1h8.8l5.9-1,.2-2.5-6,1h-9Zm1.7,4.7v2.4c5.1.9,12.6,1.1,17.6,0V37.4l-4.2.7H24.7Zm-.5,4.2a31,31,0,0,0-3,12.9c5.9,2.3,12.2,2.4,18.2,1.7a5.4,5.4,0,0,1,.5-2.1,1.5,1.5,0,0,1,1.1-.8,2.1,2.1,0,0,1,.8-1.1,5.9,5.9,0,0,1,2.2-.5h1.1l.4-1.2a28.8,28.8,0,0,0-2.6-8.9,53.4,53.4,0,0,1-18.7,0ZM21.4,45a1.1,1.1,0,1,1-1.1,1.1A1.1,1.1,0,0,1,21.4,45ZM47,48.7a4.4,4.4,0,0,0-3.1,1.4,4.9,4.9,0,0,0-1.2,2.5l1.3.8,4.4-4.5L47,48.7Zm2.8,1.6-4.5,4.5.7,1.3a5.2,5.2,0,0,0,2.7-1.3,4.2,4.2,0,0,0,1.1-4.5Zm-9.7,3.5-1.3.2,5.6,5.6a4.3,4.3,0,0,0-1.1-4.4A4.4,4.4,0,0,0,40.1,53.8Zm11.2.7A6.5,6.5,0,0,1,50,56.1l-.6.6h4.9a4.2,4.2,0,0,0-3-2.2Zm-13.9.9a4.3,4.3,0,0,0,1.2,4.5A4.1,4.1,0,0,0,43,61ZM16.8,58.8c5,2.6,13.1,2.7,19.6,1.6a7.6,7.6,0,0,1-1.1-2.2c-6.5.5-13.1.3-18.5-1.5Zm29.4-.2.2.6A5,5,0,0,0,50.3,61a4.3,4.3,0,0,0,4-2.4H46.2Z" transform="translate(-4.8 -2.7)"/></svg>