<svg xmlns="http://www.w3.org/2000/svg" viewBox="0 0 24 28"><title>coffee-grinder</title><path d="M25,13H12A4.9,4.9,0,0,1,7.1,8.9L6.2,4H21.7L20,10.8a1,1,0,0,0,1.9.4l2-8a1.1,1.1,0,0,0-.1-.8A.9.9,0,0,0,23,2H5a.9.9,0,0,0-.8.4,1.1,1.1,0,0,0-.2.8L5.1,9.3A7,7,0,0,0,12,15H25a.9.9,0,0,1,1,1v2h-.5A2.5,2.5,0,1,0,28,20.5V16A2.9,2.9,0,0,0,25,13Zm1,7.5a.5.5,0,1,1-.5-.5H26Z" transform="translate(-4 -2)"/><path d="M21,17a1,1,0,0,0-2,0v6H9V16a.9.9,0,0,0-1-1,.9.9,0,0,0-1,1v7.9L6,28.8A1,1,0,0,0,6.8,30H7a1,1,0,0,0,1-.8L8.8,25H19.2l.6,3H10a1,1,0,0,0,0,2H21a.9.9,0,0,0,.8-.4.8.8,0,0,0,.2-.8l-1-4.9Z" transform="translate(-4 -2)"/><path d="M12,19h4a1,1,0,0,0,0-2H12a1,1,0,0,0,0,2Z" transform="translate(-4 -2)"/><path d="M12,22h4a1,1,0,0,0,0-2H12a1,1,0,0,0,0,2Z" transform="translate(-4 -2)"/></svg>