<svg xmlns="http://www.w3.org/2000/svg" viewBox="0 0 34.5 34.5"><title>date_calendar</title><path d="M29.5,34.8H5.5A5.3,5.3,0,0,1,.3,29.6V8.6A5.2,5.2,0,0,1,5.5,3.4h24a5.3,5.3,0,0,1,5.3,5.2V29.5A5.5,5.5,0,0,1,29.5,34.8ZM5.5,5.9A2.7,2.7,0,0,0,2.8,8.6V29.5a2.7,2.7,0,0,0,2.7,2.7h24a2.7,2.7,0,0,0,2.7-2.7V8.6a2.7,2.7,0,0,0-2.7-2.7Z" transform="translate(-0.3 -0.3)"/><path d="M33.5,17.3H1.5A1.2,1.2,0,0,1,.3,16.1a1.3,1.3,0,0,1,1.2-1.3h32a1.3,1.3,0,0,1,1.3,1.3A1.2,1.2,0,0,1,33.5,17.3Z" transform="translate(-0.3 -0.3)"/><path d="M9.5,9.2A1.3,1.3,0,0,1,8.2,7.9h0V1.5A1.2,1.2,0,0,1,9.5.3a1.2,1.2,0,0,1,1.2,1.2V7.9A1.3,1.3,0,0,1,9.5,9.2Z" transform="translate(-0.3 -0.3)"/><path d="M25.5,9.2a1.3,1.3,0,0,1-1.2-1.3h0V1.5A1.2,1.2,0,0,1,25.5.3a1.2,1.2,0,0,1,1.3,1.2V7.9A1.3,1.3,0,0,1,25.5,9.2Z" transform="translate(-0.3 -0.3)"/></svg>