<svg xmlns="http://www.w3.org/2000/svg" viewBox="0 0 58.5 51.7"><title>menu_restaurant_coffee</title><path d="M8.4,6.1v31a.9.9,0,0,0,1,.9H30.1a1,1,0,0,0,1-.9V6.1Zm47.2,0H32.9v31a1,1,0,0,0,1,.9H54.6a.9.9,0,0,0,1-.9ZM41.2,9.5a3.1,3.1,0,0,1,3.1,3.1,3.1,3.1,0,0,1-6.2,0A3.1,3.1,0,0,1,41.2,9.5Zm-20.6.3a.9.9,0,0,1,.3,1.3.8.8,0,0,0-.2.6c0,.1,0,.2.2.5a3.6,3.6,0,0,1,.8,2.3,3.1,3.1,0,0,1-.9,1.8,1,1,0,0,1-1.4,0,1,1,0,0,1,0-1.3c.4-.4.5-.6.5-.7s-.3-.5-.7-1.2a2.5,2.5,0,0,1-.4-1.3,2.6,2.6,0,0,1,.5-1.7.9.9,0,0,1,1.3-.3ZM6.5,9.7a3.9,3.9,0,0,0-3.8,3.8V39.9a3.9,3.9,0,0,0,3.8,3.8H28.2a6,6,0,0,0,2.9-.8v-3H9.4a2.8,2.8,0,0,1-2.9-2.8Zm40.6,0h5.7a1,1,0,0,1,.9,1,.9.9,0,0,1-.9.9H47.1a.9.9,0,0,1-.9-.9A1,1,0,0,1,47.1,9.7Zm10.4,0V37.1a2.8,2.8,0,0,1-2.9,2.8H32.9v3a5.7,5.7,0,0,0,2.8.8H57.5a3.9,3.9,0,0,0,3.8-3.8V13.5A3.9,3.9,0,0,0,57.5,9.7ZM16.7,10a.9.9,0,0,1,.3,1.3c-.3.4-.2.5-.2.6a2.1,2.1,0,0,0,.5.9,4.9,4.9,0,0,1,.6,1.6,3.4,3.4,0,0,1-1,2.1,1.2,1.2,0,0,1-1.4,0,1.2,1.2,0,0,1,0-1.4c.5-.4.5-.5.5-.6a1.3,1.3,0,0,0-.3-.7,2.6,2.6,0,0,1-.7-1.4,2.6,2.6,0,0,1,.4-2.2A1,1,0,0,1,16.7,10ZM40,12.6a1.2,1.2,0,1,0,2.4,0,1.2,1.2,0,1,0-2.4,0Zm7.1.9h5.7a.9.9,0,0,1,.9,1,.9.9,0,0,1-.9.9H47.1a.9.9,0,0,1-.9-.9A.9.9,0,0,1,47.1,13.5ZM35.8,17.3a.9.9,0,0,1,.9.9.9.9,0,0,1-.9,1,1,1,0,0,1-1-1A1,1,0,0,1,35.8,17.3Zm3.8,0H52.8a.9.9,0,0,1,.9.9.9.9,0,0,1-.9,1H39.6a.9.9,0,0,1-1-1A.9.9,0,0,1,39.6,17.3Zm-15.7.9a1.1,1.1,0,0,1,1,1c0,.3-.1.6-.1.9a3.8,3.8,0,0,1-.2,7.6l-1.1-.2-.9,1.6a.9.9,0,0,1-.8.5H14.5a.8.8,0,0,1-.8-.5c-1.9-3.3-2.2-5.7-2.3-9.9a1,1,0,0,1,1-1ZM13.5,20.1a15.8,15.8,0,0,0,1.7,7.6h5.9a15.8,15.8,0,0,0,1.7-7.6Zm22.3,1a.9.9,0,0,1,.9.9,1,1,0,0,1-.9,1,1.1,1.1,0,0,1-1-1A1,1,0,0,1,35.8,21.1Zm3.8,0H52.8a.9.9,0,0,1,.9.9,1,1,0,0,1-.9,1H39.6a1,1,0,0,1-1-1A.9.9,0,0,1,39.6,21.1ZM24.1,25.7c1.3.2,2.4-.4,2.4-1.8A1.9,1.9,0,0,0,24.8,22,20.2,20.2,0,0,1,24.1,25.7Zm18.3-.9a1.1,1.1,0,0,1,.7.3l1.2,1.2,1.2-1.2a.9.9,0,0,1,1.3,0L48,26.3l1.3-1.2a.9.9,0,0,1,1.3,0L52.5,27a.9.9,0,0,1-1.3,1.3l-1.3-1.2-1.2,1.2a.9.9,0,0,1-1.3,0l-1.2-1.2-1.3,1.2a.9.9,0,0,1-1.3,0l-1.2-1.2-1.2,1.2a1,1,0,0,1-1.4,0l-1.2-1.2-1.2,1.2A.9.9,0,0,1,36.1,27l1.8-1.9a1.1,1.1,0,0,1,.7-.3.9.9,0,0,1,.7.3l1.2,1.2,1.2-1.2A.9.9,0,0,1,42.4,24.8Zm-6.6,5.7H49a.9.9,0,0,1,.9.9.9.9,0,0,1-.9,1H35.8a1,1,0,0,1-1-1A1,1,0,0,1,35.8,30.5Zm16.9,0h.1a.9.9,0,0,1,.9.9.9.9,0,0,1-.9,1,.9.9,0,0,1-1-1A.9.9,0,0,1,52.7,30.5Zm-38.9.9h8.7a1,1,0,0,1,.9,1,.9.9,0,0,1-.9.9H13.8a.9.9,0,0,1-.9-.9A1,1,0,0,1,13.8,31.4ZM12,34.3H24.3a.9.9,0,0,1,.9.9,1,1,0,0,1-.9,1H12a1,1,0,0,1-.9-1A.9.9,0,0,1,12,34.3Zm23.8,0H49a.9.9,0,0,1,.9.9,1,1,0,0,1-.9,1H35.8a1.1,1.1,0,0,1-1-1A1,1,0,0,1,35.8,34.3Zm16.9,0h.1a.9.9,0,0,1,.9.9,1,1,0,0,1-.9,1,1,1,0,0,1-1-1A.9.9,0,0,1,52.7,34.3ZM5.5,47.5a2.8,2.8,0,0,0-2,.8,2.2,2.2,0,0,0-.3,2.2,4.8,4.8,0,0,0,1,1.7H59.8a4.8,4.8,0,0,0,1-1.7,2.2,2.2,0,0,0-.3-2.2,2.8,2.8,0,0,0-2-.8Zm8.1,6.6v.5a3.3,3.3,0,0,0,3.3,3.3H47.1a3.3,3.3,0,0,0,3.3-3.3v-.5Z" transform="translate(-2.7 -6.1)"/></svg>