<svg xmlns="http://www.w3.org/2000/svg" viewBox="0 0 26 24"><title>recept</title><path d="M29,16a2,2,0,0,1-2,2H11a2,2,0,0,1,0-4H27A2,2,0,0,1,29,16Z" transform="translate(-3 -4)"/><path d="M29,6a2,2,0,0,1-2,2H11a2,2,0,0,1,0-4H27A2,2,0,0,1,29,6Z" transform="translate(-3 -4)"/><path d="M29,26a2,2,0,0,1-2,2H11a2,2,0,0,1,0-4H27A2,2,0,0,1,29,26Z" transform="translate(-3 -4)"/><path d="M3,6A2,2,0,1,0,5,4,2,2,0,0,0,3,6Z" transform="translate(-3 -4)"/><path d="M3,16a2,2,0,1,0,2-2A2,2,0,0,0,3,16Z" transform="translate(-3 -4)"/><path d="M3,26a2,2,0,1,0,2-2A2,2,0,0,0,3,26Z" transform="translate(-3 -4)"/></svg>